<svg enable-background="new 0 0 40 71" height="71" viewBox="0 0 40 71" width="40" xmlns="http://www.w3.org/2000/svg"><path d="m17.5 40.7 18.6 29.6c.9.6 1.4.6 2.4.7l1-.7c.4-.8.5-1 .3-1.7 0-2-2.4-4.1-3.4-5.9l-10.5-17.5-4.3-6.7c.7-1 1.3-1.9 2-2.9.3-1.8.6-3.7.9-5.6 5.1-7.6 18.4-16.1 14.9-29.8-3-1.3-4.9 1.9-7.8 2.2-8.4.9-16.5 2.2-23.3 8.7-1.7 1.7-2.3 4.3-4.3 6.3-1.1 1.1-2.5 1.7-3.7 4-1.9 8.3 5.6 19.9 17.2 19.3zm-6.6-28.8c2.3.9 4.4 2 6.4 3.3l-2.4 3c-3-1.7-5.3-1.8-7.8-1.9 1.1-1.3 1.5-2.3 3.8-4.4zm7.5-4.6c2.4.9 4.9 2.6 6.1 3.8l-.1.2-4.8 2.6c-2.2-1.2-4.3-2.4-6.5-3.6 1.6-1.3 3.3-2.1 5.3-3zm12.2 1.2-.1.2-3.8 1.7-5.1-4c1.5-.4 3-.9 4.5-1.1 1.7.2 3.8 2.3 4.5 3.2zm7.1-6.8c-.3 2.8-3.7 4.8-5.1 5.8-.7-1-1.4-1.8-2.7-2.6 1-.2 1.9-.4 2.9-.5 1.4-.8 2.9-1.4 4.4-2.2.1 0 .5-.4.5-.5zm-2 11.5c-.7-1.2-1.3-2.4-2-3.6 1.3-1.4 2.8-1.9 4-3.7l.2.1c.1 2.1-.9 4.9-2.2 7.2zm-3.5 4.9-3.8-5.9c1-.6 2.4-1.2 3.5-1.8 1 1.5 1.6 3.1 2.4 4.8-.1 1-1 2-1.9 2.6-.1 0-.2.2-.2.3zm-4.9 5c-1.5-2.2-3.5-5.2-6.4-7.8 1.5-.8 3.4-1.5 4.9-2.3 1.5 1.1 3.7 4.8 4.8 6.7.1.3-2.1 2.5-3.3 3.4zm-10.4-3.7c.7-.9 1.4-1.7 2.1-2.6 3.2 1.1 5.2 5.7 6.8 8.1l-2.4 3c-1.7-3.1-3.5-5.5-6.5-8.5zm-12.4 3.7c2.9-7.3 18.7 3.7 14.6 11.9-7.3 5.1-16.5-6.4-14.6-11.9z" fill="#231f20"/></svg>